<?xml version="1.0" encoding="utf-8"?>
<!-- Generator: Adobe Illustrator 18.1.1, SVG Export Plug-In . SVG Version: 6.00 Build 0)  -->
<!DOCTYPE svg PUBLIC "-//W3C//DTD SVG 1.1//EN" "http://www.w3.org/Graphics/SVG/1.1/DTD/svg11.dtd">
<svg version="1.1" id="Layer_1" xmlns="http://www.w3.org/2000/svg" xmlns:xlink="http://www.w3.org/1999/xlink" x="0px" y="0px"
	 viewBox="0 0 256 151.8" style="enable-background:new 0 0 256 151.8;" xml:space="preserve">
<style type="text/css">
	.st0{fill:#BB9D6E;}
</style>
<g>
	<path class="st0" d="M188.5,87.6C188.5,87.6,188.5,87.6,188.5,87.6c11.3-3.4,23-8,34.2-14.1c18-10.5,27.2,0.4,20.5,16.8
		c-5.7,15.6-36,44.5-62.4,51.1c-10.1-7.1-30-12-52.8-12.1c-22.9,0.1-42.8,5-52.8,12.1c-26.4-6.6-56.7-35.6-62.4-51.1
		C6.1,74,15.3,63.1,33.3,73.6c11.3,6.1,22.9,10.7,34.2,14.1c24.2,7.3,46.3,9.1,57.9,9.1l6.4,0C143.4,96.6,165,94.7,188.5,87.6z"/>
	<g id="XMLID_1_">
		<path class="st0" d="M155.9,14.5c9.4,4.7,24.7,49,30.7,67.1c-22.7,6.6-43.5,8.4-54.8,8.5l-6.4,0c-11.3,0-32.6-1.7-56-8.5
			c5.9-18.1,21.3-62.4,30.7-67.2c10.8-5.4,20.1,3.5,27.5,4.4h-1.4c0.6,0.1,1.2,0.1,1.8,0c0.6,0.1,1.2,0,1.8,0h-1.4
			C135.8,18,145.1,9.1,155.9,14.5z M152.2,48.8c0-2-1.6-3.6-3.6-3.6c-1.8,0-3.3,1.3-3.5,3.1l-11-1.6l-4.8-9.8
			c1.3-0.5,2.2-1.8,2.2-3.3c0-2-1.6-3.6-3.6-3.6s-3.6,1.6-3.6,3.6c0,1.5,0.9,2.8,2.2,3.3l-4.8,9.8l-11,1.6c-0.2-1.7-1.7-3.1-3.5-3.1
			c-2,0-3.6,1.6-3.6,3.6c0,2,1.6,3.6,3.6,3.6c1.2,0,2.3-0.6,2.9-1.5l7.8,7.6l-2,11.4c-0.4-0.2-0.9-0.3-1.4-0.3c-2,0-3.6,1.6-3.6,3.6
			s1.6,3.6,3.6,3.6c2,0,3.6-1.6,3.6-3.6c0-0.7-0.2-1.4-0.6-2l10.4-5.5l10.4,5.5c-0.4,0.6-0.6,1.3-0.6,2c0,2,1.6,3.6,3.6,3.6
			c2,0,3.6-1.6,3.6-3.6s-1.6-3.6-3.6-3.6c-0.5,0-1,0.1-1.4,0.3l-2-11.4l7.8-7.6c0.6,0.9,1.7,1.5,2.9,1.5
			C150.6,52.4,152.2,50.8,152.2,48.8z"/>
	</g>
</g>
<g>
</g>
<g>
</g>
<g>
</g>
<g>
</g>
<g>
</g>
<g>
</g>
<g>
</g>
<g>
</g>
<g>
</g>
<g>
</g>
<g>
</g>
<g>
</g>
<g>
</g>
<g>
</g>
<g>
</g>
</svg>
