<?xml version="1.0" encoding="utf-8"?>
<!-- Generator: Adobe Illustrator 18.1.1, SVG Export Plug-In . SVG Version: 6.00 Build 0)  -->
<!DOCTYPE svg PUBLIC "-//W3C//DTD SVG 1.1//EN" "http://www.w3.org/Graphics/SVG/1.1/DTD/svg11.dtd">
<svg version="1.1" id="Layer_1" xmlns="http://www.w3.org/2000/svg" xmlns:xlink="http://www.w3.org/1999/xlink" x="0px" y="0px"
	 viewBox="0 0 256 256" style="enable-background:new 0 0 256 256;" xml:space="preserve">
<style type="text/css">
	.st0{fill:#87724F;}
</style>
<g id="Your_Icon">
	<path class="st0" d="M221.8,173.9c-1.7,0-3.1,0.6-4.4,1.4l-27.7-46.7l27.7-46.7c1.3,0.8,2.8,1.4,4.4,1.4c4.9,0,8.8-4,8.8-8.8
		c0-4.9-4-8.8-8.8-8.8c-4.9,0-8.8,3.9-8.8,8.8c0,0,0,0.1,0,0.1l-54.2,0.7l-26.6-47.4c2.7-1.5,4.6-4.3,4.6-7.6c0-4.9-3.9-8.8-8.8-8.8
		c-4.9,0-8.8,3.9-8.8,8.8c0,3.3,1.9,6.1,4.6,7.6L97.2,75.2L43,74.5c0,0,0-0.1,0-0.1c0-4.9-4-8.8-8.8-8.8c-4.9,0-8.8,3.9-8.8,8.8
		c0,4.9,3.9,8.8,8.8,8.8c1.6,0,3.1-0.6,4.4-1.4l27.7,46.7l-27.7,46.7c-1.3-0.8-2.8-1.4-4.4-1.4c-4.9,0-8.8,3.9-8.8,8.8
		c0,4.9,3.9,8.8,8.8,8.8c4.9,0,8.8-4,8.8-8.8c0,0,0-0.1,0-0.1l54.2-0.7l26.6,47.4c-2.7,1.5-4.6,4.3-4.6,7.6c0,4.9,4,8.8,8.8,8.8
		c4.9,0,8.8-4,8.8-8.8c0-3.3-1.9-6.1-4.6-7.6l26.6-47.4l54.2,0.7c0,0,0,0.1,0,0.1c0,4.9,3.9,8.8,8.8,8.8c4.9,0,8.8-4,8.8-8.8
		C230.6,177.9,226.6,173.9,221.8,173.9z"/>
</g>
<g>
</g>
<g>
</g>
<g>
</g>
<g>
</g>
<g>
</g>
<g>
</g>
<g>
</g>
<g>
</g>
<g>
</g>
<g>
</g>
<g>
</g>
<g>
</g>
<g>
</g>
<g>
</g>
<g>
</g>
</svg>
